<?xml version="1.0" encoding="UTF-8"?>
<svg id="_圖層_1" data-name=" 圖層 1" xmlns="http://www.w3.org/2000/svg" viewBox="0 0 558.01 637.06">
  <polygon points="553.52 163.36 492.05 199.63 367.57 126.3 405.71 74.94 553.52 163.36"/>
  <path d="M495.14,231.65l-171.54,104.45-196.02,152.76,60.3,35.35-.23,74.46L0,489.2l141.32-207.31,140.9-206.99L63.51,199.49l-.13,89.09L.71,325.47l-.09-159.88L230.24,29.91,280.69,0l104.08,62.36-185.54,249.31-99.52,134.57,158.33-92.84,194.52-114.29,105.38-61.64.07,313.3-97.6,57.13-77.27,45.38c10.28-14.66,17.33-29.17,21.46-46.03,3.44-14.01,4.27-27.69,4.47-42.37l86.03-50.39.03-222.85h0Z"/>
  <path d="M204,608.18l.04-73.99,61.8,36.06c8.45,4.4,17.05,6.09,26.13,2.92,22.9-6.73,37.35-26.43,39.48-50.57l.1-174.11,62.3-37.48-.02,201.69c.82,58.29-38.94,109.45-95.63,122.16-22.99,5.15-45.98,1.11-66.21-10.51l-27.98-16.16h0Z"/>
  <polygon points="331.5 236.44 288.87 236.04 318.99 195.47 393.85 165.93 393.96 257.21 331.53 294.1 331.5 236.44"/>
</svg>